<svg width="138" height="49" viewBox="0 0 138 49" fill="none" xmlns="http://www.w3.org/2000/svg">
<path d="M9.68213 20.392C14.6381 20.392 17.7181 18.012 18.9501 13.28L14.6381 12.58C13.9101 15.24 12.2861 16.584 9.76612 16.584C8.19812 16.584 6.91013 15.996 5.93013 14.82C4.95013 13.672 4.44613 12.16 4.44613 10.284C4.44613 8.40801 4.95013 6.89601 5.93013 5.72001C6.91013 4.54401 8.14213 3.95601 9.68213 3.95601C12.2301 3.95601 13.9101 5.60801 14.6941 8.91201L18.8101 7.84801C17.7181 2.92001 14.5821 0.14801 9.85013 0.14801C7.02213 0.14801 4.67013 1.10001 2.85013 3.00401C1.00213 4.93601 0.078125 7.34401 0.078125 10.284C0.078125 13.28 0.974125 15.688 2.76612 17.564C4.55813 19.44 6.85413 20.392 9.68213 20.392Z" fill="#00282E"/>
<path d="M37.634 17.536C39.51 15.632 40.462 13.224 40.462 10.284C40.462 7.34401 39.51 4.93601 37.634 3.00401C35.758 1.10001 33.35 0.14801 30.466 0.14801C27.582 0.14801 25.174 1.10001 23.298 3.00401C21.422 4.93601 20.47 7.34401 20.47 10.284C20.47 13.224 21.422 15.632 23.298 17.536C25.174 19.44 27.582 20.392 30.466 20.392C33.35 20.392 35.758 19.44 37.634 17.536ZM30.466 16.584C28.814 16.584 27.47 15.996 26.434 14.848C25.398 13.7 24.866 12.16 24.866 10.284C24.866 8.40801 25.398 6.86801 26.434 5.69201C27.47 4.54401 28.814 3.95601 30.466 3.95601C32.118 3.95601 33.49 4.54401 34.526 5.69201C35.562 6.86801 36.094 8.40801 36.094 10.284C36.094 12.16 35.562 13.7 34.526 14.848C33.49 15.996 32.118 16.584 30.466 16.584Z" fill="#00282E"/>
<path d="M51.9424 20.392C56.8984 20.392 59.9784 18.012 61.2104 13.28L56.8984 12.58C56.1704 15.24 54.5464 16.584 52.0264 16.584C50.4584 16.584 49.1704 15.996 48.1904 14.82C47.2104 13.672 46.7064 12.16 46.7064 10.284C46.7064 8.40801 47.2104 6.89601 48.1904 5.72001C49.1704 4.54401 50.4024 3.95601 51.9424 3.95601C54.4904 3.95601 56.1704 5.60801 56.9544 8.91201L61.0704 7.84801C59.9784 2.92001 56.8424 0.14801 52.1104 0.14801C49.2824 0.14801 46.9304 1.10001 45.1104 3.00401C43.2624 4.93601 42.3384 7.34401 42.3384 10.284C42.3384 13.28 43.2344 15.688 45.0264 17.564C46.8184 19.44 49.1144 20.392 51.9424 20.392Z" fill="#00282E"/>
<path d="M79.7243 16.164C78.9683 16.164 78.2683 15.884 77.6243 15.324C76.9803 14.764 76.0844 13.672 74.9643 12.048L73.0043 9.22001L80.2843 0.54001H75.3563L67.9643 9.61201V0.54001H63.7923V20H67.9643V13.952L69.7563 11.852L71.1843 13.98C72.7803 16.36 74.1243 17.956 75.2443 18.824C76.3643 19.692 77.7363 20.112 79.3883 20.112C79.7243 20.112 80.0603 20.056 80.3963 19.944V16.08C80.2283 16.136 80.0043 16.164 79.7243 16.164Z" fill="#00282E"/>
<path d="M90.9502 20V4.34801H96.9142V0.54001H80.7862V4.34801H86.7782V20H90.9502Z" fill="#00282E"/>
<path d="M114.961 20L108.017 0.54001H102.557L95.6135 20H99.9815L101.549 15.324H108.969L110.593 20H114.961ZM105.189 4.46001L107.821 12.048H102.641L105.189 4.46001Z" fill="#00282E"/>
<path d="M120.882 20V0.54001H116.71V20H120.882Z" fill="#00282E"/>
<path d="M137.709 20V16.192H128.833V0.54001H124.661V20H137.709Z" fill="#00282E"/>
<path d="M23.5344 44.164C21.8824 44.164 20.5664 43.296 18.9704 40.244C21.8824 39.656 23.5624 37.668 23.5624 34.728C23.5624 32.796 22.9184 31.284 21.6304 30.192C20.3424 29.1 18.6344 28.54 16.5344 28.54H7.79836V48H11.9704V40.832H14.6024L15.1904 42.036C16.2264 44.388 17.3744 45.984 18.5784 46.824C19.7824 47.692 21.2664 48.112 23.0304 48.112C23.5064 48.112 23.8984 48.056 24.2344 47.944V44.08C24.0384 44.136 23.8144 44.164 23.5344 44.164ZM16.0304 32.152C18.1304 32.152 19.1944 32.992 19.1944 34.7C19.1944 36.408 18.1584 37.248 16.0864 37.248H11.9704V32.152H16.0304Z" fill="#00282E"/>
<path d="M40.881 48V44.388H30.913V39.992H38.949V36.38H30.913V32.152H40.741V28.54H26.741V48H40.881Z" fill="#00282E"/>
<path d="M52.2842 48.392C57.2402 48.392 60.3202 46.012 61.5522 41.28L57.2402 40.58C56.5122 43.24 54.8882 44.584 52.3682 44.584C50.8002 44.584 49.5122 43.996 48.5322 42.82C47.5522 41.672 47.0482 40.16 47.0482 38.284C47.0482 36.408 47.5522 34.896 48.5322 33.72C49.5122 32.544 50.7442 31.956 52.2842 31.956C54.8322 31.956 56.5122 33.608 57.2962 36.912L61.4122 35.848C60.3202 30.92 57.1842 28.148 52.4522 28.148C49.6242 28.148 47.2722 29.1 45.4522 31.004C43.6042 32.936 42.6802 35.344 42.6802 38.284C42.6802 41.28 43.5762 43.688 45.3682 45.564C47.1602 47.44 49.4562 48.392 52.2842 48.392Z" fill="#00282E"/>
<path d="M68.3061 48V28.54H64.1341V48H68.3061Z" fill="#00282E"/>
<path d="M76.2566 48V41.252H80.3166C82.4446 41.252 84.1806 40.692 85.5246 39.544C86.8406 38.396 87.5126 36.856 87.5126 34.896C87.5126 32.936 86.8406 31.396 85.5246 30.248C84.1806 29.1 82.4446 28.54 80.3166 28.54H72.0846V48H76.2566ZM76.2566 32.152H79.8126C81.9686 32.152 83.1446 33.132 83.1446 34.896C83.1446 36.66 81.9966 37.668 79.8686 37.668H76.2566V32.152Z" fill="#00282E"/>
<path d="M94.1602 48V28.54H89.9882V48H94.1602Z" fill="#00282E"/>
<path d="M112.079 48V44.388H102.111V39.992H110.147V36.38H102.111V32.152H111.939V28.54H97.9387V48H112.079Z" fill="#00282E"/>
<path d="M122.194 48.392C124.574 48.392 126.506 47.804 127.99 46.656C129.446 45.508 130.174 43.996 130.174 42.12C130.174 39.124 128.382 37.332 124.126 36.576L121.55 36.128C119.506 35.764 118.498 34.98 118.498 33.776C118.498 32.432 119.786 31.564 121.606 31.564C124.042 31.564 125.414 32.796 125.722 35.232L129.838 34.728C129.53 30.472 126.87 28.148 121.746 28.148C119.506 28.148 117.714 28.708 116.37 29.8C114.998 30.92 114.326 32.32 114.326 34C114.326 37.136 116.314 39.012 120.822 39.796L123.398 40.244C125.162 40.58 126.03 41.336 126.03 42.512C126.03 44.052 124.602 44.976 122.278 44.976C119.702 44.976 118.022 43.912 118.022 42.232C118.022 41.756 118.106 41.308 118.246 40.944L114.242 40.02C113.99 40.832 113.85 41.644 113.85 42.4C113.85 44.164 114.578 45.62 116.062 46.712C117.546 47.832 119.59 48.392 122.194 48.392Z" fill="#00282E"/>
</svg>
