<svg width="138" height="49" viewBox="0 0 138 49" fill="none" xmlns="http://www.w3.org/2000/svg">
<path d="M9.68213 20.244C14.6381 20.244 17.7181 17.864 18.9501 13.132L14.6381 12.432C13.9101 15.092 12.2861 16.436 9.76612 16.436C8.19812 16.436 6.91013 15.848 5.93013 14.672C4.95013 13.524 4.44613 12.012 4.44613 10.136C4.44613 8.26 4.95013 6.748 5.93013 5.572C6.91013 4.396 8.14213 3.808 9.68213 3.808C12.2301 3.808 13.9101 5.46 14.6941 8.764L18.8101 7.7C17.7181 2.772 14.5821 0 9.85013 0C7.02213 0 4.67013 0.952001 2.85013 2.856C1.00213 4.788 0.078125 7.196 0.078125 10.136C0.078125 13.132 0.974125 15.54 2.76612 17.416C4.55813 19.292 6.85413 20.244 9.68213 20.244Z" fill="#FFF6EC"/>
<path d="M37.634 17.388C39.51 15.484 40.462 13.076 40.462 10.136C40.462 7.196 39.51 4.788 37.634 2.856C35.758 0.952001 33.35 0 30.466 0C27.582 0 25.174 0.952001 23.298 2.856C21.422 4.788 20.47 7.196 20.47 10.136C20.47 13.076 21.422 15.484 23.298 17.388C25.174 19.292 27.582 20.244 30.466 20.244C33.35 20.244 35.758 19.292 37.634 17.388ZM30.466 16.436C28.814 16.436 27.47 15.848 26.434 14.7C25.398 13.552 24.866 12.012 24.866 10.136C24.866 8.26 25.398 6.72 26.434 5.544C27.47 4.396 28.814 3.808 30.466 3.808C32.118 3.808 33.49 4.396 34.526 5.544C35.562 6.72 36.094 8.26 36.094 10.136C36.094 12.012 35.562 13.552 34.526 14.7C33.49 15.848 32.118 16.436 30.466 16.436Z" fill="#FFF6EC"/>
<path d="M51.9424 20.244C56.8984 20.244 59.9784 17.864 61.2104 13.132L56.8984 12.432C56.1704 15.092 54.5464 16.436 52.0264 16.436C50.4584 16.436 49.1704 15.848 48.1904 14.672C47.2104 13.524 46.7064 12.012 46.7064 10.136C46.7064 8.26 47.2104 6.748 48.1904 5.572C49.1704 4.396 50.4024 3.808 51.9424 3.808C54.4904 3.808 56.1704 5.46 56.9544 8.764L61.0704 7.7C59.9784 2.772 56.8424 0 52.1104 0C49.2824 0 46.9304 0.952001 45.1104 2.856C43.2624 4.788 42.3384 7.196 42.3384 10.136C42.3384 13.132 43.2344 15.54 45.0264 17.416C46.8184 19.292 49.1144 20.244 51.9424 20.244Z" fill="#FFF6EC"/>
<path d="M79.7243 16.016C78.9683 16.016 78.2683 15.736 77.6243 15.176C76.9803 14.616 76.0844 13.524 74.9643 11.9L73.0043 9.072L80.2843 0.392H75.3563L67.9643 9.464V0.392H63.7923V19.852H67.9643V13.804L69.7563 11.704L71.1843 13.832C72.7803 16.212 74.1243 17.808 75.2443 18.676C76.3643 19.544 77.7363 19.964 79.3883 19.964C79.7243 19.964 80.0603 19.908 80.3963 19.796V15.932C80.2283 15.988 80.0043 16.016 79.7243 16.016Z" fill="#FFF6EC"/>
<path d="M90.9502 19.852V4.2H96.9142V0.392H80.7862V4.2H86.7782V19.852H90.9502Z" fill="#FFF6EC"/>
<path d="M114.961 19.852L108.017 0.392H102.557L95.6135 19.852H99.9815L101.549 15.176H108.969L110.593 19.852H114.961ZM105.189 4.312L107.821 11.9H102.641L105.189 4.312Z" fill="#FFF6EC"/>
<path d="M120.882 19.852V0.392H116.71V19.852H120.882Z" fill="#FFF6EC"/>
<path d="M137.709 19.852V16.044H128.833V0.392H124.661V19.852H137.709Z" fill="#FFF6EC"/>
<path d="M23.5344 44.016C21.8824 44.016 20.5664 43.148 18.9704 40.096C21.8824 39.508 23.5624 37.52 23.5624 34.58C23.5624 32.648 22.9184 31.136 21.6304 30.044C20.3424 28.952 18.6344 28.392 16.5344 28.392H7.79836V47.852H11.9704V40.684H14.6024L15.1904 41.888C16.2264 44.24 17.3744 45.836 18.5784 46.676C19.7824 47.544 21.2664 47.964 23.0304 47.964C23.5064 47.964 23.8984 47.908 24.2344 47.796V43.932C24.0384 43.988 23.8144 44.016 23.5344 44.016ZM16.0304 32.004C18.1304 32.004 19.1944 32.844 19.1944 34.552C19.1944 36.26 18.1584 37.1 16.0864 37.1H11.9704V32.004H16.0304Z" fill="#FFF6EC"/>
<path d="M40.881 47.852V44.24H30.913V39.844H38.949V36.232H30.913V32.004H40.741V28.392H26.741V47.852H40.881Z" fill="#FFF6EC"/>
<path d="M52.2842 48.244C57.2402 48.244 60.3202 45.864 61.5522 41.132L57.2402 40.432C56.5122 43.092 54.8882 44.436 52.3682 44.436C50.8002 44.436 49.5122 43.848 48.5322 42.672C47.5522 41.524 47.0482 40.012 47.0482 38.136C47.0482 36.26 47.5522 34.748 48.5322 33.572C49.5122 32.396 50.7442 31.808 52.2842 31.808C54.8322 31.808 56.5122 33.46 57.2962 36.764L61.4122 35.7C60.3202 30.772 57.1842 28 52.4522 28C49.6242 28 47.2722 28.952 45.4522 30.856C43.6042 32.788 42.6802 35.196 42.6802 38.136C42.6802 41.132 43.5762 43.54 45.3682 45.416C47.1602 47.292 49.4562 48.244 52.2842 48.244Z" fill="#FFF6EC"/>
<path d="M68.3061 47.852V28.392H64.1341V47.852H68.3061Z" fill="#FFF6EC"/>
<path d="M76.2566 47.852V41.104H80.3166C82.4446 41.104 84.1806 40.544 85.5246 39.396C86.8406 38.248 87.5126 36.708 87.5126 34.748C87.5126 32.788 86.8406 31.248 85.5246 30.1C84.1806 28.952 82.4446 28.392 80.3166 28.392H72.0846V47.852H76.2566ZM76.2566 32.004H79.8126C81.9686 32.004 83.1446 32.984 83.1446 34.748C83.1446 36.512 81.9966 37.52 79.8686 37.52H76.2566V32.004Z" fill="#FFF6EC"/>
<path d="M94.1602 47.852V28.392H89.9882V47.852H94.1602Z" fill="#FFF6EC"/>
<path d="M112.079 47.852V44.24H102.111V39.844H110.147V36.232H102.111V32.004H111.939V28.392H97.9387V47.852H112.079Z" fill="#FFF6EC"/>
<path d="M122.194 48.244C124.574 48.244 126.506 47.656 127.99 46.508C129.446 45.36 130.174 43.848 130.174 41.972C130.174 38.976 128.382 37.184 124.126 36.428L121.55 35.98C119.506 35.616 118.498 34.832 118.498 33.628C118.498 32.284 119.786 31.416 121.606 31.416C124.042 31.416 125.414 32.648 125.722 35.084L129.838 34.58C129.53 30.324 126.87 28 121.746 28C119.506 28 117.714 28.56 116.37 29.652C114.998 30.772 114.326 32.172 114.326 33.852C114.326 36.988 116.314 38.864 120.822 39.648L123.398 40.096C125.162 40.432 126.03 41.188 126.03 42.364C126.03 43.904 124.602 44.828 122.278 44.828C119.702 44.828 118.022 43.764 118.022 42.084C118.022 41.608 118.106 41.16 118.246 40.796L114.242 39.872C113.99 40.684 113.85 41.496 113.85 42.252C113.85 44.016 114.578 45.472 116.062 46.564C117.546 47.684 119.59 48.244 122.194 48.244Z" fill="#FFF6EC"/>
</svg>
